{
	"asset":{
		"generator":"Khronos glTF Blender I/O v4.0.44",
		"version":"2.0"
	},
	"scene":0,
	"scenes":[
		{
			"name":"Scene",
			"nodes":[
				0,
				1,
				2,
				3,
				4,
				5,
				6,
				7,
				8,
				9,
				10,
				11
			]
		}
	],
	"nodes":[
		{
			"mesh":0,
			"name":"chassis",
			"scale":[
				6.600000381469727,
				1,
				4
			]
		},
		{
			"mesh":1,
			"name":"roue",
			"rotation":[
				0.5,
				-0.4999999403953552,
				-0.5,
				0.5000000596046448
			],
			"scale":[
				3.200000047683716,
				3.200000047683716,
				3.200000047683716
			],
			"translation":[
				2,
				1.3000000715255737,
				3.9294683933258057
			]
		},
		{
			"mesh":2,
			"name":"moteur",
			"translation":[
				2,
				0,
				0
			]
		},
		{
			"mesh":3,
			"name":"bloc_piles",
			"scale":[
				1,
				0.8358429670333862,
				1
			],
			"translation":[
				-0.10000002384185791,
				0,
				0
			]
		},
		{
			"mesh":4,
			"name":"pi_pico",
			"scale":[
				0.7700000405311584,
				1,
				1
			],
			"translation":[
				-3.0999999046325684,
				0,
				0
			]
		},
		{
			"mesh":5,
			"name":"pates_pico",
			"scale":[
				2.6000001430511475,
				0.5,
				0.060000017285346985
			],
			"translation":[
				-1.3460161685943604,
				0.5,
				0.9200000166893005
			]
		},
		{
			"mesh":6,
			"name":"buzzer",
			"scale":[
				0.4952985644340515,
				0.07118355482816696,
				0.4952985644340515
			],
			"translation":[
				4.600000381469727,
				0.24496284127235413,
				2.1000001430511475
			]
		},
		{
			"mesh":7,
			"name":"capteur_distance",
			"scale":[
				0.10000002384185791,
				1,
				2.450545072555542
			],
			"translation":[
				5,
				1.7999999523162842,
				0
			]
		},
		{
			"mesh":8,
			"name":"connecteur_avant",
			"scale":[
				0.10000002384185791,
				0.5935057997703552,
				0.6000000238418579
			],
			"translation":[
				4.800000190734863,
				0.6494991779327393,
				0
			]
		},
		{
			"mesh":9,
			"name":"connecteur_arriere",
			"scale":[
				0.10000002384185791,
				0.5935057997703552,
				0.6000000238418579
			],
			"translation":[
				-6.199999809265137,
				0.6494991779327393,
				0
			]
		},
		{
			"mesh":10,
			"name":"bouton",
			"scale":[
				0.5,
				0.19999998807907104,
				0.5
			],
			"translation":[
				-5.107677936553955,
				0.22496934235095978,
				2.0459301471710205
			]
		},
		{
			"mesh":11,
			"name":"capteur",
			"scale":[
				0.5,
				0.10000002384185791,
				1
			],
			"translation":[
				3,
				-0.40000009536743164,
				0
			]
		}
	],
	"materials":[
		{
			"doubleSided":true,
			"name":"vert",
			"pbrMetallicRoughness":{
				"baseColorFactor":[
					0,
					0.2412225902080536,
					0.005061407573521137,
					1
				],
				"metallicFactor":0,
				"roughnessFactor":0.5
			}
		},
		{
			"doubleSided":true,
			"name":"jaune",
			"pbrMetallicRoughness":{
				"baseColorFactor":[
					1,
					0.9844863414764404,
					0,
					1
				],
				"metallicFactor":0,
				"roughnessFactor":0.5
			}
		},
		{
			"doubleSided":true,
			"name":"noir",
			"pbrMetallicRoughness":{
				"baseColorFactor":[
					0,
					0,
					0,
					1
				],
				"metallicFactor":0,
				"roughnessFactor":0.5
			}
		},
		{
			"doubleSided":true,
			"name":"gris_fonce",
			"pbrMetallicRoughness":{
				"baseColorFactor":[
					0.18382646143436432,
					0.18382646143436432,
					0.18382646143436432,
					1
				],
				"metallicFactor":0,
				"roughnessFactor":0.5
			}
		},
		{
			"doubleSided":true,
			"name":"noir",
			"pbrMetallicRoughness":{
				"baseColorFactor":[
					0,
					0,
					0,
					1
				],
				"metallicFactor":0,
				"roughnessFactor":0.5
			}
		},
		{
			"doubleSided":true,
			"name":"gris_clair",
			"pbrMetallicRoughness":{
				"baseColorFactor":[
					0.49634093046188354,
					0.49634093046188354,
					0.49634093046188354,
					1
				],
				"metallicFactor":0,
				"roughnessFactor":0.5
			}
		},
		{
			"doubleSided":true,
			"name":"bleu_fonce",
			"pbrMetallicRoughness":{
				"baseColorFactor":[
					0.0006118580349721014,
					0.001439493615180254,
					0.214030921459198,
					1
				],
				"metallicFactor":0,
				"roughnessFactor":0.5
			}
		},
		{
			"doubleSided":true,
			"name":"red",
			"pbrMetallicRoughness":{
				"baseColorFactor":[
					0.8001489639282227,
					0.0006378662073984742,
					0,
					1
				],
				"metallicFactor":0,
				"roughnessFactor":0.5
			}
		},
		{
			"doubleSided":true,
			"name":"gris_clair",
			"pbrMetallicRoughness":{
				"baseColorFactor":[
					0.49634093046188354,
					0.49634093046188354,
					0.49634093046188354,
					1
				],
				"metallicFactor":0,
				"roughnessFactor":0.5
			}
		}
	],
	"meshes":[
		{
			"name":"Plane",
			"primitives":[
				{
					"attributes":{
						"POSITION":0,
						"NORMAL":1,
						"TEXCOORD_0":2
					},
					"indices":3,
					"material":0
				}
			]
		},
		{
			"name":"Circle",
			"primitives":[
				{
					"attributes":{
						"POSITION":4,
						"NORMAL":5,
						"TEXCOORD_0":6
					},
					"indices":7,
					"material":1
				},
				{
					"attributes":{
						"POSITION":8,
						"NORMAL":9,
						"TEXCOORD_0":10
					},
					"indices":11,
					"material":2
				}
			]
		},
		{
			"name":"Cube.001",
			"primitives":[
				{
					"attributes":{
						"POSITION":12,
						"NORMAL":13,
						"TEXCOORD_0":14
					},
					"indices":15,
					"material":3
				},
				{
					"attributes":{
						"POSITION":16,
						"NORMAL":17,
						"TEXCOORD_0":18
					},
					"indices":19,
					"material":1
				},
				{
					"attributes":{
						"POSITION":20,
						"NORMAL":21,
						"TEXCOORD_0":22
					},
					"indices":23,
					"material":2
				}
			]
		},
		{
			"name":"Cube.002",
			"primitives":[
				{
					"attributes":{
						"POSITION":24,
						"NORMAL":25,
						"TEXCOORD_0":26
					},
					"indices":27,
					"material":2
				}
			]
		},
		{
			"name":"Cube.003",
			"primitives":[
				{
					"attributes":{
						"POSITION":28,
						"NORMAL":29,
						"TEXCOORD_0":30
					},
					"indices":27,
					"material":0
				}
			]
		},
		{
			"name":"Cube.004",
			"primitives":[
				{
					"attributes":{
						"POSITION":31,
						"NORMAL":32,
						"TEXCOORD_0":33
					},
					"indices":27,
					"material":2
				}
			]
		},
		{
			"name":"Cube.005",
			"primitives":[
				{
					"attributes":{
						"POSITION":34,
						"NORMAL":35,
						"TEXCOORD_0":36
					},
					"indices":37,
					"material":4
				}
			]
		},
		{
			"name":"Cube.006",
			"primitives":[
				{
					"attributes":{
						"POSITION":38,
						"NORMAL":39,
						"TEXCOORD_0":40
					},
					"indices":41,
					"material":5
				},
				{
					"attributes":{
						"POSITION":42,
						"NORMAL":43,
						"TEXCOORD_0":44
					},
					"indices":27,
					"material":6
				},
				{
					"attributes":{
						"POSITION":45,
						"NORMAL":46,
						"TEXCOORD_0":47
					},
					"indices":48,
					"material":2
				}
			]
		},
		{
			"name":"Cube.007",
			"primitives":[
				{
					"attributes":{
						"POSITION":49,
						"NORMAL":50,
						"TEXCOORD_0":51
					},
					"indices":37,
					"material":4
				}
			]
		},
		{
			"name":"Cube.008",
			"primitives":[
				{
					"attributes":{
						"POSITION":52,
						"NORMAL":53,
						"TEXCOORD_0":54
					},
					"indices":37,
					"material":4
				}
			]
		},
		{
			"name":"Cube.009",
			"primitives":[
				{
					"attributes":{
						"POSITION":55,
						"NORMAL":56,
						"TEXCOORD_0":57
					},
					"indices":58,
					"material":7
				},
				{
					"attributes":{
						"POSITION":59,
						"NORMAL":60,
						"TEXCOORD_0":61
					},
					"indices":37,
					"material":8
				}
			]
		},
		{
			"name":"Cube.010",
			"primitives":[
				{
					"attributes":{
						"POSITION":62,
						"NORMAL":63,
						"TEXCOORD_0":64
					},
					"indices":65,
					"material":0
				},
				{
					"attributes":{
						"POSITION":66,
						"NORMAL":67,
						"TEXCOORD_0":68
					},
					"indices":69,
					"material":2
				}
			]
		}
	],
	"accessors":[
		{
			"bufferView":0,
			"componentType":5126,
			"count":154,
			"max":[
				1,
				0.20000000298023224,
				1
			],
			"min":[
				-1,
				0,
				-1
			],
			"type":"VEC3"
		},
		{
			"bufferView":1,
			"componentType":5126,
			"count":154,
			"type":"VEC3"
		},
		{
			"bufferView":2,
			"componentType":5126,
			"count":154,
			"type":"VEC2"
		},
		{
			"bufferView":3,
			"componentType":5123,
			"count":408,
			"type":"SCALAR"
		},
		{
			"bufferView":4,
			"componentType":5126,
			"count":1612,
			"max":[
				1,
				0.09001003205776215,
				1
			],
			"min":[
				-1,
				-2.5459277629852295,
				-1.000000238418579
			],
			"type":"VEC3"
		},
		{
			"bufferView":5,
			"componentType":5126,
			"count":1612,
			"type":"VEC3"
		},
		{
			"bufferView":6,
			"componentType":5126,
			"count":1612,
			"type":"VEC2"
		},
		{
			"bufferView":7,
			"componentType":5123,
			"count":3264,
			"type":"SCALAR"
		},
		{
			"bufferView":8,
			"componentType":5126,
			"count":512,
			"max":[
				1.0120679140090942,
				0.06833791732788086,
				1.0120677947998047
			],
			"min":[
				-1.0120679140090942,
				-2.5242557525634766,
				-1.0120680332183838
			],
			"type":"VEC3"
		},
		{
			"bufferView":9,
			"componentType":5126,
			"count":512,
			"type":"VEC3"
		},
		{
			"bufferView":10,
			"componentType":5126,
			"count":512,
			"type":"VEC2"
		},
		{
			"bufferView":11,
			"componentType":5123,
			"count":768,
			"type":"SCALAR"
		},
		{
			"bufferView":12,
			"componentType":5126,
			"count":72,
			"max":[
				1,
				1.9299999475479126,
				3.3815832138061523
			],
			"min":[
				-5.147792816162109,
				0.10000000149011612,
				-3.3815832138061523
			],
			"type":"VEC3"
		},
		{
			"bufferView":13,
			"componentType":5126,
			"count":72,
			"type":"VEC3"
		},
		{
			"bufferView":14,
			"componentType":5126,
			"count":72,
			"type":"VEC2"
		},
		{
			"bufferView":15,
			"componentType":5123,
			"count":108,
			"type":"SCALAR"
		},
		{
			"bufferView":16,
			"componentType":5126,
			"count":64,
			"max":[
				1,
				2.0999999046325684,
				3.3815832138061523
			],
			"min":[
				-3.6733007431030273,
				0.10000000149011612,
				-3.3815832138061523
			],
			"type":"VEC3"
		},
		{
			"bufferView":17,
			"componentType":5126,
			"count":64,
			"type":"VEC3"
		},
		{
			"bufferView":18,
			"componentType":5126,
			"count":64,
			"type":"VEC2"
		},
		{
			"bufferView":19,
			"componentType":5123,
			"count":96,
			"type":"SCALAR"
		},
		{
			"bufferView":20,
			"componentType":5126,
			"count":40,
			"max":[
				-5.147792816162109,
				1.8469998836517334,
				3.1285831928253174
			],
			"min":[
				-6.447793006896973,
				0.3529999256134033,
				-3.1285831928253174
			],
			"type":"VEC3"
		},
		{
			"bufferView":21,
			"componentType":5126,
			"count":40,
			"type":"VEC3"
		},
		{
			"bufferView":22,
			"componentType":5126,
			"count":40,
			"type":"VEC2"
		},
		{
			"bufferView":23,
			"componentType":5123,
			"count":60,
			"type":"SCALAR"
		},
		{
			"bufferView":24,
			"componentType":5126,
			"count":48,
			"max":[
				5.393132209777832,
				0.03834563493728638,
				3.119999885559082
			],
			"min":[
				-5.393132209777832,
				-1.4016543626785278,
				-3.119999885559082
			],
			"type":"VEC3"
		},
		{
			"bufferView":25,
			"componentType":5126,
			"count":48,
			"type":"VEC3"
		},
		{
			"bufferView":26,
			"componentType":5126,
			"count":48,
			"type":"VEC2"
		},
		{
			"bufferView":27,
			"componentType":5123,
			"count":72,
			"type":"SCALAR"
		},
		{
			"bufferView":28,
			"componentType":5126,
			"count":48,
			"max":[
				5.699999809265137,
				1.100000023841858,
				1
			],
			"min":[
				-1.1395018100738525,
				0.8999999761581421,
				-1
			],
			"type":"VEC3"
		},
		{
			"bufferView":29,
			"componentType":5126,
			"count":48,
			"type":"VEC3"
		},
		{
			"bufferView":30,
			"componentType":5126,
			"count":48,
			"type":"VEC2"
		},
		{
			"bufferView":31,
			"componentType":5126,
			"count":48,
			"max":[
				1,
				1,
				1
			],
			"min":[
				-1,
				-1,
				-31.666658401489258
			],
			"type":"VEC3"
		},
		{
			"bufferView":32,
			"componentType":5126,
			"count":48,
			"type":"VEC3"
		},
		{
			"bufferView":33,
			"componentType":5126,
			"count":48,
			"type":"VEC2"
		},
		{
			"bufferView":34,
			"componentType":5126,
			"count":24,
			"max":[
				1,
				1,
				1
			],
			"min":[
				-1,
				-1,
				-1
			],
			"type":"VEC3"
		},
		{
			"bufferView":35,
			"componentType":5126,
			"count":24,
			"type":"VEC3"
		},
		{
			"bufferView":36,
			"componentType":5126,
			"count":24,
			"type":"VEC2"
		},
		{
			"bufferView":37,
			"componentType":5123,
			"count":36,
			"type":"SCALAR"
		},
		{
			"bufferView":38,
			"componentType":5126,
			"count":192,
			"max":[
				11.606128692626953,
				0.8899999856948853,
				0.9445803761482239
			],
			"min":[
				0.8061316013336182,
				-0.9099998474121094,
				-0.9445803761482239
			],
			"type":"VEC3"
		},
		{
			"bufferView":39,
			"componentType":5126,
			"count":192,
			"type":"VEC3"
		},
		{
			"bufferView":40,
			"componentType":5126,
			"count":192,
			"type":"VEC2"
		},
		{
			"bufferView":41,
			"componentType":5123,
			"count":324,
			"type":"SCALAR"
		},
		{
			"bufferView":42,
			"componentType":5126,
			"count":48,
			"max":[
				1,
				1,
				1
			],
			"min":[
				-1,
				-1,
				-1
			],
			"type":"VEC3"
		},
		{
			"bufferView":43,
			"componentType":5126,
			"count":48,
			"type":"VEC3"
		},
		{
			"bufferView":44,
			"componentType":5126,
			"count":48,
			"type":"VEC2"
		},
		{
			"bufferView":45,
			"componentType":5126,
			"count":16,
			"max":[
				9.606128692626953,
				0.800000011920929,
				0.9078538417816162
			],
			"min":[
				9.606128692626953,
				-0.8199998736381531,
				-0.9078538417816162
			],
			"type":"VEC3"
		},
		{
			"bufferView":46,
			"componentType":5126,
			"count":16,
			"type":"VEC3"
		},
		{
			"bufferView":47,
			"componentType":5126,
			"count":16,
			"type":"VEC2"
		},
		{
			"bufferView":48,
			"componentType":5123,
			"count":36,
			"type":"SCALAR"
		},
		{
			"bufferView":49,
			"componentType":5126,
			"count":24,
			"max":[
				1,
				1,
				1
			],
			"min":[
				-1,
				-1,
				-1
			],
			"type":"VEC3"
		},
		{
			"bufferView":50,
			"componentType":5126,
			"count":24,
			"type":"VEC3"
		},
		{
			"bufferView":51,
			"componentType":5126,
			"count":24,
			"type":"VEC2"
		},
		{
			"bufferView":52,
			"componentType":5126,
			"count":24,
			"max":[
				1,
				1,
				1
			],
			"min":[
				-1,
				-1,
				-1
			],
			"type":"VEC3"
		},
		{
			"bufferView":53,
			"componentType":5126,
			"count":24,
			"type":"VEC3"
		},
		{
			"bufferView":54,
			"componentType":5126,
			"count":24,
			"type":"VEC2"
		},
		{
			"bufferView":55,
			"componentType":5126,
			"count":48,
			"max":[
				0.6753552556037903,
				1.3576717376708984,
				0.7481399774551392
			],
			"min":[
				-0.7246443629264832,
				0.6423282623291016,
				-0.6518599987030029
			],
			"type":"VEC3"
		},
		{
			"bufferView":56,
			"componentType":5126,
			"count":48,
			"type":"VEC3"
		},
		{
			"bufferView":57,
			"componentType":5126,
			"count":48,
			"type":"VEC2"
		},
		{
			"bufferView":58,
			"componentType":5123,
			"count":84,
			"type":"SCALAR"
		},
		{
			"bufferView":59,
			"componentType":5126,
			"count":24,
			"max":[
				1,
				1,
				1
			],
			"min":[
				-1,
				-1,
				-1
			],
			"type":"VEC3"
		},
		{
			"bufferView":60,
			"componentType":5126,
			"count":24,
			"type":"VEC3"
		},
		{
			"bufferView":61,
			"componentType":5126,
			"count":24,
			"type":"VEC2"
		},
		{
			"bufferView":62,
			"componentType":5126,
			"count":72,
			"max":[
				1.7999999523162842,
				1,
				1
			],
			"min":[
				-1,
				-1,
				-1
			],
			"type":"VEC3"
		},
		{
			"bufferView":63,
			"componentType":5126,
			"count":72,
			"type":"VEC3"
		},
		{
			"bufferView":64,
			"componentType":5126,
			"count":72,
			"type":"VEC2"
		},
		{
			"bufferView":65,
			"componentType":5123,
			"count":120,
			"type":"SCALAR"
		},
		{
			"bufferView":66,
			"componentType":5126,
			"count":96,
			"max":[
				1.600000023841858,
				-9.5367431640625e-07,
				0.800000011920929
			],
			"min":[
				-0.20000004768371582,
				-2.0000009536743164,
				-0.800000011920929
			],
			"type":"VEC3"
		},
		{
			"bufferView":67,
			"componentType":5126,
			"count":96,
			"type":"VEC3"
		},
		{
			"bufferView":68,
			"componentType":5126,
			"count":96,
			"type":"VEC2"
		},
		{
			"bufferView":69,
			"componentType":5123,
			"count":144,
			"type":"SCALAR"
		}
	],
	"bufferViews":[
		{
			"buffer":0,
			"byteLength":1848,
			"byteOffset":0,
			"target":34962
		},
		{
			"buffer":0,
			"byteLength":1848,
			"byteOffset":1848,
			"target":34962
		},
		{
			"buffer":0,
			"byteLength":1232,
			"byteOffset":3696,
			"target":34962
		},
		{
			"buffer":0,
			"byteLength":816,
			"byteOffset":4928,
			"target":34963
		},
		{
			"buffer":0,
			"byteLength":19344,
			"byteOffset":5744,
			"target":34962
		},
		{
			"buffer":0,
			"byteLength":19344,
			"byteOffset":25088,
			"target":34962
		},
		{
			"buffer":0,
			"byteLength":12896,
			"byteOffset":44432,
			"target":34962
		},
		{
			"buffer":0,
			"byteLength":6528,
			"byteOffset":57328,
			"target":34963
		},
		{
			"buffer":0,
			"byteLength":6144,
			"byteOffset":63856,
			"target":34962
		},
		{
			"buffer":0,
			"byteLength":6144,
			"byteOffset":70000,
			"target":34962
		},
		{
			"buffer":0,
			"byteLength":4096,
			"byteOffset":76144,
			"target":34962
		},
		{
			"buffer":0,
			"byteLength":1536,
			"byteOffset":80240,
			"target":34963
		},
		{
			"buffer":0,
			"byteLength":864,
			"byteOffset":81776,
			"target":34962
		},
		{
			"buffer":0,
			"byteLength":864,
			"byteOffset":82640,
			"target":34962
		},
		{
			"buffer":0,
			"byteLength":576,
			"byteOffset":83504,
			"target":34962
		},
		{
			"buffer":0,
			"byteLength":216,
			"byteOffset":84080,
			"target":34963
		},
		{
			"buffer":0,
			"byteLength":768,
			"byteOffset":84296,
			"target":34962
		},
		{
			"buffer":0,
			"byteLength":768,
			"byteOffset":85064,
			"target":34962
		},
		{
			"buffer":0,
			"byteLength":512,
			"byteOffset":85832,
			"target":34962
		},
		{
			"buffer":0,
			"byteLength":192,
			"byteOffset":86344,
			"target":34963
		},
		{
			"buffer":0,
			"byteLength":480,
			"byteOffset":86536,
			"target":34962
		},
		{
			"buffer":0,
			"byteLength":480,
			"byteOffset":87016,
			"target":34962
		},
		{
			"buffer":0,
			"byteLength":320,
			"byteOffset":87496,
			"target":34962
		},
		{
			"buffer":0,
			"byteLength":120,
			"byteOffset":87816,
			"target":34963
		},
		{
			"buffer":0,
			"byteLength":576,
			"byteOffset":87936,
			"target":34962
		},
		{
			"buffer":0,
			"byteLength":576,
			"byteOffset":88512,
			"target":34962
		},
		{
			"buffer":0,
			"byteLength":384,
			"byteOffset":89088,
			"target":34962
		},
		{
			"buffer":0,
			"byteLength":144,
			"byteOffset":89472,
			"target":34963
		},
		{
			"buffer":0,
			"byteLength":576,
			"byteOffset":89616,
			"target":34962
		},
		{
			"buffer":0,
			"byteLength":576,
			"byteOffset":90192,
			"target":34962
		},
		{
			"buffer":0,
			"byteLength":384,
			"byteOffset":90768,
			"target":34962
		},
		{
			"buffer":0,
			"byteLength":576,
			"byteOffset":91152,
			"target":34962
		},
		{
			"buffer":0,
			"byteLength":576,
			"byteOffset":91728,
			"target":34962
		},
		{
			"buffer":0,
			"byteLength":384,
			"byteOffset":92304,
			"target":34962
		},
		{
			"buffer":0,
			"byteLength":288,
			"byteOffset":92688,
			"target":34962
		},
		{
			"buffer":0,
			"byteLength":288,
			"byteOffset":92976,
			"target":34962
		},
		{
			"buffer":0,
			"byteLength":192,
			"byteOffset":93264,
			"target":34962
		},
		{
			"buffer":0,
			"byteLength":72,
			"byteOffset":93456,
			"target":34963
		},
		{
			"buffer":0,
			"byteLength":2304,
			"byteOffset":93528,
			"target":34962
		},
		{
			"buffer":0,
			"byteLength":2304,
			"byteOffset":95832,
			"target":34962
		},
		{
			"buffer":0,
			"byteLength":1536,
			"byteOffset":98136,
			"target":34962
		},
		{
			"buffer":0,
			"byteLength":648,
			"byteOffset":99672,
			"target":34963
		},
		{
			"buffer":0,
			"byteLength":576,
			"byteOffset":100320,
			"target":34962
		},
		{
			"buffer":0,
			"byteLength":576,
			"byteOffset":100896,
			"target":34962
		},
		{
			"buffer":0,
			"byteLength":384,
			"byteOffset":101472,
			"target":34962
		},
		{
			"buffer":0,
			"byteLength":192,
			"byteOffset":101856,
			"target":34962
		},
		{
			"buffer":0,
			"byteLength":192,
			"byteOffset":102048,
			"target":34962
		},
		{
			"buffer":0,
			"byteLength":128,
			"byteOffset":102240,
			"target":34962
		},
		{
			"buffer":0,
			"byteLength":72,
			"byteOffset":102368,
			"target":34963
		},
		{
			"buffer":0,
			"byteLength":288,
			"byteOffset":102440,
			"target":34962
		},
		{
			"buffer":0,
			"byteLength":288,
			"byteOffset":102728,
			"target":34962
		},
		{
			"buffer":0,
			"byteLength":192,
			"byteOffset":103016,
			"target":34962
		},
		{
			"buffer":0,
			"byteLength":288,
			"byteOffset":103208,
			"target":34962
		},
		{
			"buffer":0,
			"byteLength":288,
			"byteOffset":103496,
			"target":34962
		},
		{
			"buffer":0,
			"byteLength":192,
			"byteOffset":103784,
			"target":34962
		},
		{
			"buffer":0,
			"byteLength":576,
			"byteOffset":103976,
			"target":34962
		},
		{
			"buffer":0,
			"byteLength":576,
			"byteOffset":104552,
			"target":34962
		},
		{
			"buffer":0,
			"byteLength":384,
			"byteOffset":105128,
			"target":34962
		},
		{
			"buffer":0,
			"byteLength":168,
			"byteOffset":105512,
			"target":34963
		},
		{
			"buffer":0,
			"byteLength":288,
			"byteOffset":105680,
			"target":34962
		},
		{
			"buffer":0,
			"byteLength":288,
			"byteOffset":105968,
			"target":34962
		},
		{
			"buffer":0,
			"byteLength":192,
			"byteOffset":106256,
			"target":34962
		},
		{
			"buffer":0,
			"byteLength":864,
			"byteOffset":106448,
			"target":34962
		},
		{
			"buffer":0,
			"byteLength":864,
			"byteOffset":107312,
			"target":34962
		},
		{
			"buffer":0,
			"byteLength":576,
			"byteOffset":108176,
			"target":34962
		},
		{
			"buffer":0,
			"byteLength":240,
			"byteOffset":108752,
			"target":34963
		},
		{
			"buffer":0,
			"byteLength":1152,
			"byteOffset":108992,
			"target":34962
		},
		{
			"buffer":0,
			"byteLength":1152,
			"byteOffset":110144,
			"target":34962
		},
		{
			"buffer":0,
			"byteLength":768,
			"byteOffset":111296,
			"target":34962
		},
		{
			"buffer":0,
			"byteLength":288,
			"byteOffset":112064,
			"target":34963
		}
	],
	"buffers":[
		{
			"byteLength":112352,
			"uri":"pico_arp.bin"
		}
	]
}
