{
	"asset":{
		"generator":"Khronos glTF Blender I/O v4.0.44",
		"version":"2.0"
	},
	"scene":0,
	"scenes":[
		{
			"name":"Scene",
			"nodes":[
				0,
				1,
				2,
				3,
				4,
				5,
				6,
				7,
				8,
				9,
				10
			]
		}
	],
	"nodes":[
		{
			"mesh":0,
			"name":"chassis",
			"rotation":[
				0,
				0.7071068286895752,
				0,
				0.7071068286895752
			],
			"scale":[
				6.600000381469727,
				1,
				4
			]
		},
		{
			"mesh":1,
			"name":"moteur",
			"rotation":[
				0,
				0.7071068286895752,
				0,
				0.7071068286895752
			],
			"translation":[
				0,
				0,
				-2
			]
		},
		{
			"mesh":2,
			"name":"bloc_piles",
			"rotation":[
				0,
				0.7071068286895752,
				0,
				0.7071068286895752
			],
			"scale":[
				1,
				0.8358429670333862,
				1
			],
			"translation":[
				0,
				0,
				0.10000002384185791
			]
		},
		{
			"mesh":3,
			"name":"pi_pico",
			"rotation":[
				0,
				0.7071068286895752,
				0,
				0.7071068286895752
			],
			"scale":[
				0.7700000405311584,
				1,
				1
			],
			"translation":[
				0,
				0,
				3.0999999046325684
			]
		},
		{
			"mesh":4,
			"name":"pates_pico",
			"rotation":[
				0,
				0.7071068286895752,
				0,
				0.7071068286895752
			],
			"scale":[
				2.6000001430511475,
				0.5,
				0.060000017285346985
			],
			"translation":[
				0.9200000762939453,
				0.4999999701976776,
				1.3460161685943604
			]
		},
		{
			"mesh":5,
			"name":"buzzer",
			"rotation":[
				0,
				0.7071068286895752,
				0,
				0.7071068286895752
			],
			"scale":[
				0.4952985644340515,
				0.07118355482816696,
				0.4952985644340515
			],
			"translation":[
				2.0999999046325684,
				0.24496282637119293,
				-4.600000381469727
			]
		},
		{
			"mesh":6,
			"name":"capteur_distance",
			"rotation":[
				0,
				0.7071068286895752,
				0,
				0.7071068286895752
			],
			"scale":[
				0.10000002384185791,
				1,
				2.450545072555542
			],
			"translation":[
				0,
				1.7999998331069946,
				-5
			]
		},
		{
			"mesh":7,
			"name":"connecteur_avant",
			"rotation":[
				0,
				0.7071068286895752,
				0,
				0.7071068286895752
			],
			"scale":[
				0.10000002384185791,
				0.5935057997703552,
				0.6000000238418579
			],
			"translation":[
				0,
				0.6494991183280945,
				-4.800000190734863
			]
		},
		{
			"mesh":8,
			"name":"connecteur_arriere",
			"rotation":[
				0,
				0.7071068286895752,
				0,
				0.7071068286895752
			],
			"scale":[
				0.10000002384185791,
				0.5935057997703552,
				0.6000000238418579
			],
			"translation":[
				0,
				0.6494991183280945,
				6.199999809265137
			]
		},
		{
			"mesh":9,
			"name":"bouton",
			"rotation":[
				0,
				0.7071068286895752,
				0,
				0.7071068286895752
			],
			"scale":[
				0.5,
				0.19999998807907104,
				0.5
			],
			"translation":[
				2.0459303855895996,
				0.22496932744979858,
				5.107677936553955
			]
		},
		{
			"mesh":10,
			"name":"capteur",
			"rotation":[
				0,
				0.7071068286895752,
				0,
				0.7071068286895752
			],
			"scale":[
				0.5,
				0.10000002384185791,
				1
			],
			"translation":[
				0,
				-0.40000006556510925,
				-3
			]
		}
	],
	"materials":[
		{
			"doubleSided":true,
			"name":"vert",
			"pbrMetallicRoughness":{
				"baseColorFactor":[
					0,
					0.2412225902080536,
					0.005061407573521137,
					1
				],
				"metallicFactor":0,
				"roughnessFactor":0.5
			}
		},
		{
			"doubleSided":true,
			"name":"gris_fonce",
			"pbrMetallicRoughness":{
				"baseColorFactor":[
					0.18382646143436432,
					0.18382646143436432,
					0.18382646143436432,
					1
				],
				"metallicFactor":0,
				"roughnessFactor":0.5
			}
		},
		{
			"doubleSided":true,
			"name":"jaune",
			"pbrMetallicRoughness":{
				"baseColorFactor":[
					1,
					0.9844863414764404,
					0,
					1
				],
				"metallicFactor":0,
				"roughnessFactor":0.5
			}
		},
		{
			"doubleSided":true,
			"name":"noir",
			"pbrMetallicRoughness":{
				"baseColorFactor":[
					0,
					0,
					0,
					1
				],
				"metallicFactor":0,
				"roughnessFactor":0.5
			}
		},
		{
			"doubleSided":true,
			"name":"noir",
			"pbrMetallicRoughness":{
				"baseColorFactor":[
					0,
					0,
					0,
					1
				],
				"metallicFactor":0,
				"roughnessFactor":0.5
			}
		},
		{
			"doubleSided":true,
			"name":"gris_clair",
			"pbrMetallicRoughness":{
				"baseColorFactor":[
					0.49634093046188354,
					0.49634093046188354,
					0.49634093046188354,
					1
				],
				"metallicFactor":0,
				"roughnessFactor":0.5
			}
		},
		{
			"doubleSided":true,
			"name":"bleu_fonce",
			"pbrMetallicRoughness":{
				"baseColorFactor":[
					0.0006118580349721014,
					0.001439493615180254,
					0.214030921459198,
					1
				],
				"metallicFactor":0,
				"roughnessFactor":0.5
			}
		},
		{
			"doubleSided":true,
			"name":"red",
			"pbrMetallicRoughness":{
				"baseColorFactor":[
					0.8001489639282227,
					0.0006378662073984742,
					0,
					1
				],
				"metallicFactor":0,
				"roughnessFactor":0.5
			}
		},
		{
			"doubleSided":true,
			"name":"gris_clair",
			"pbrMetallicRoughness":{
				"baseColorFactor":[
					0.49634093046188354,
					0.49634093046188354,
					0.49634093046188354,
					1
				],
				"metallicFactor":0,
				"roughnessFactor":0.5
			}
		}
	],
	"meshes":[
		{
			"name":"Plane",
			"primitives":[
				{
					"attributes":{
						"POSITION":0,
						"NORMAL":1,
						"TEXCOORD_0":2
					},
					"indices":3,
					"material":0
				}
			]
		},
		{
			"name":"Cube.001",
			"primitives":[
				{
					"attributes":{
						"POSITION":4,
						"NORMAL":5,
						"TEXCOORD_0":6
					},
					"indices":7,
					"material":1
				},
				{
					"attributes":{
						"POSITION":8,
						"NORMAL":9,
						"TEXCOORD_0":10
					},
					"indices":11,
					"material":2
				},
				{
					"attributes":{
						"POSITION":12,
						"NORMAL":13,
						"TEXCOORD_0":14
					},
					"indices":15,
					"material":3
				}
			]
		},
		{
			"name":"Cube.002",
			"primitives":[
				{
					"attributes":{
						"POSITION":16,
						"NORMAL":17,
						"TEXCOORD_0":18
					},
					"indices":19,
					"material":3
				}
			]
		},
		{
			"name":"Cube.003",
			"primitives":[
				{
					"attributes":{
						"POSITION":20,
						"NORMAL":21,
						"TEXCOORD_0":22
					},
					"indices":19,
					"material":0
				}
			]
		},
		{
			"name":"Cube.004",
			"primitives":[
				{
					"attributes":{
						"POSITION":23,
						"NORMAL":24,
						"TEXCOORD_0":25
					},
					"indices":19,
					"material":3
				}
			]
		},
		{
			"name":"Cube.005",
			"primitives":[
				{
					"attributes":{
						"POSITION":26,
						"NORMAL":27,
						"TEXCOORD_0":28
					},
					"indices":29,
					"material":4
				}
			]
		},
		{
			"name":"Cube.006",
			"primitives":[
				{
					"attributes":{
						"POSITION":30,
						"NORMAL":31,
						"TEXCOORD_0":32
					},
					"indices":33,
					"material":5
				},
				{
					"attributes":{
						"POSITION":34,
						"NORMAL":35,
						"TEXCOORD_0":36
					},
					"indices":19,
					"material":6
				},
				{
					"attributes":{
						"POSITION":37,
						"NORMAL":38,
						"TEXCOORD_0":39
					},
					"indices":40,
					"material":3
				}
			]
		},
		{
			"name":"Cube.007",
			"primitives":[
				{
					"attributes":{
						"POSITION":41,
						"NORMAL":42,
						"TEXCOORD_0":43
					},
					"indices":29,
					"material":4
				}
			]
		},
		{
			"name":"Cube.008",
			"primitives":[
				{
					"attributes":{
						"POSITION":44,
						"NORMAL":45,
						"TEXCOORD_0":46
					},
					"indices":29,
					"material":4
				}
			]
		},
		{
			"name":"Cube.009",
			"primitives":[
				{
					"attributes":{
						"POSITION":47,
						"NORMAL":48,
						"TEXCOORD_0":49
					},
					"indices":50,
					"material":7
				},
				{
					"attributes":{
						"POSITION":51,
						"NORMAL":52,
						"TEXCOORD_0":53
					},
					"indices":29,
					"material":8
				}
			]
		},
		{
			"name":"Cube.010",
			"primitives":[
				{
					"attributes":{
						"POSITION":54,
						"NORMAL":55,
						"TEXCOORD_0":56
					},
					"indices":57,
					"material":0
				},
				{
					"attributes":{
						"POSITION":58,
						"NORMAL":59,
						"TEXCOORD_0":60
					},
					"indices":61,
					"material":3
				}
			]
		}
	],
	"accessors":[
		{
			"bufferView":0,
			"componentType":5126,
			"count":154,
			"max":[
				1,
				0.20000000298023224,
				1
			],
			"min":[
				-1,
				0,
				-1
			],
			"type":"VEC3"
		},
		{
			"bufferView":1,
			"componentType":5126,
			"count":154,
			"type":"VEC3"
		},
		{
			"bufferView":2,
			"componentType":5126,
			"count":154,
			"type":"VEC2"
		},
		{
			"bufferView":3,
			"componentType":5123,
			"count":408,
			"type":"SCALAR"
		},
		{
			"bufferView":4,
			"componentType":5126,
			"count":72,
			"max":[
				1,
				1.9299999475479126,
				3.3815832138061523
			],
			"min":[
				-5.147792816162109,
				0.10000000149011612,
				-3.3815832138061523
			],
			"type":"VEC3"
		},
		{
			"bufferView":5,
			"componentType":5126,
			"count":72,
			"type":"VEC3"
		},
		{
			"bufferView":6,
			"componentType":5126,
			"count":72,
			"type":"VEC2"
		},
		{
			"bufferView":7,
			"componentType":5123,
			"count":108,
			"type":"SCALAR"
		},
		{
			"bufferView":8,
			"componentType":5126,
			"count":64,
			"max":[
				1,
				2.0999999046325684,
				3.3815832138061523
			],
			"min":[
				-3.6733007431030273,
				0.10000000149011612,
				-3.3815832138061523
			],
			"type":"VEC3"
		},
		{
			"bufferView":9,
			"componentType":5126,
			"count":64,
			"type":"VEC3"
		},
		{
			"bufferView":10,
			"componentType":5126,
			"count":64,
			"type":"VEC2"
		},
		{
			"bufferView":11,
			"componentType":5123,
			"count":96,
			"type":"SCALAR"
		},
		{
			"bufferView":12,
			"componentType":5126,
			"count":40,
			"max":[
				-5.147792816162109,
				1.8469998836517334,
				3.1285831928253174
			],
			"min":[
				-6.447793006896973,
				0.3529999256134033,
				-3.1285831928253174
			],
			"type":"VEC3"
		},
		{
			"bufferView":13,
			"componentType":5126,
			"count":40,
			"type":"VEC3"
		},
		{
			"bufferView":14,
			"componentType":5126,
			"count":40,
			"type":"VEC2"
		},
		{
			"bufferView":15,
			"componentType":5123,
			"count":60,
			"type":"SCALAR"
		},
		{
			"bufferView":16,
			"componentType":5126,
			"count":48,
			"max":[
				5.393132209777832,
				0.03834563493728638,
				3.119999885559082
			],
			"min":[
				-5.393132209777832,
				-1.4016543626785278,
				-3.119999885559082
			],
			"type":"VEC3"
		},
		{
			"bufferView":17,
			"componentType":5126,
			"count":48,
			"type":"VEC3"
		},
		{
			"bufferView":18,
			"componentType":5126,
			"count":48,
			"type":"VEC2"
		},
		{
			"bufferView":19,
			"componentType":5123,
			"count":72,
			"type":"SCALAR"
		},
		{
			"bufferView":20,
			"componentType":5126,
			"count":48,
			"max":[
				5.699999809265137,
				1.100000023841858,
				1
			],
			"min":[
				-1.1395018100738525,
				0.8999999761581421,
				-1
			],
			"type":"VEC3"
		},
		{
			"bufferView":21,
			"componentType":5126,
			"count":48,
			"type":"VEC3"
		},
		{
			"bufferView":22,
			"componentType":5126,
			"count":48,
			"type":"VEC2"
		},
		{
			"bufferView":23,
			"componentType":5126,
			"count":48,
			"max":[
				1,
				1,
				1
			],
			"min":[
				-1,
				-1,
				-31.666658401489258
			],
			"type":"VEC3"
		},
		{
			"bufferView":24,
			"componentType":5126,
			"count":48,
			"type":"VEC3"
		},
		{
			"bufferView":25,
			"componentType":5126,
			"count":48,
			"type":"VEC2"
		},
		{
			"bufferView":26,
			"componentType":5126,
			"count":24,
			"max":[
				1,
				1,
				1
			],
			"min":[
				-1,
				-1,
				-1
			],
			"type":"VEC3"
		},
		{
			"bufferView":27,
			"componentType":5126,
			"count":24,
			"type":"VEC3"
		},
		{
			"bufferView":28,
			"componentType":5126,
			"count":24,
			"type":"VEC2"
		},
		{
			"bufferView":29,
			"componentType":5123,
			"count":36,
			"type":"SCALAR"
		},
		{
			"bufferView":30,
			"componentType":5126,
			"count":228,
			"max":[
				11.606128692626953,
				0.8899999856948853,
				0.9445803761482239
			],
			"min":[
				0.7374066710472107,
				-0.9099998474121094,
				-0.9445803761482239
			],
			"type":"VEC3"
		},
		{
			"bufferView":31,
			"componentType":5126,
			"count":228,
			"type":"VEC3"
		},
		{
			"bufferView":32,
			"componentType":5126,
			"count":228,
			"type":"VEC2"
		},
		{
			"bufferView":33,
			"componentType":5123,
			"count":390,
			"type":"SCALAR"
		},
		{
			"bufferView":34,
			"componentType":5126,
			"count":48,
			"max":[
				1,
				1,
				1
			],
			"min":[
				-1,
				-1,
				-1
			],
			"type":"VEC3"
		},
		{
			"bufferView":35,
			"componentType":5126,
			"count":48,
			"type":"VEC3"
		},
		{
			"bufferView":36,
			"componentType":5126,
			"count":48,
			"type":"VEC2"
		},
		{
			"bufferView":37,
			"componentType":5126,
			"count":16,
			"max":[
				9.606128692626953,
				0.800000011920929,
				0.9078538417816162
			],
			"min":[
				9.606128692626953,
				-0.8199998736381531,
				-0.9078538417816162
			],
			"type":"VEC3"
		},
		{
			"bufferView":38,
			"componentType":5126,
			"count":16,
			"type":"VEC3"
		},
		{
			"bufferView":39,
			"componentType":5126,
			"count":16,
			"type":"VEC2"
		},
		{
			"bufferView":40,
			"componentType":5123,
			"count":36,
			"type":"SCALAR"
		},
		{
			"bufferView":41,
			"componentType":5126,
			"count":24,
			"max":[
				1,
				1,
				1
			],
			"min":[
				-1,
				-1,
				-1
			],
			"type":"VEC3"
		},
		{
			"bufferView":42,
			"componentType":5126,
			"count":24,
			"type":"VEC3"
		},
		{
			"bufferView":43,
			"componentType":5126,
			"count":24,
			"type":"VEC2"
		},
		{
			"bufferView":44,
			"componentType":5126,
			"count":24,
			"max":[
				1,
				1,
				1
			],
			"min":[
				-1,
				-1,
				-1
			],
			"type":"VEC3"
		},
		{
			"bufferView":45,
			"componentType":5126,
			"count":24,
			"type":"VEC3"
		},
		{
			"bufferView":46,
			"componentType":5126,
			"count":24,
			"type":"VEC2"
		},
		{
			"bufferView":47,
			"componentType":5126,
			"count":48,
			"max":[
				0.6753552556037903,
				1.3576717376708984,
				0.7481399774551392
			],
			"min":[
				-0.7246443629264832,
				0.6423282623291016,
				-0.6518599987030029
			],
			"type":"VEC3"
		},
		{
			"bufferView":48,
			"componentType":5126,
			"count":48,
			"type":"VEC3"
		},
		{
			"bufferView":49,
			"componentType":5126,
			"count":48,
			"type":"VEC2"
		},
		{
			"bufferView":50,
			"componentType":5123,
			"count":84,
			"type":"SCALAR"
		},
		{
			"bufferView":51,
			"componentType":5126,
			"count":24,
			"max":[
				1,
				1,
				1
			],
			"min":[
				-1,
				-1,
				-1
			],
			"type":"VEC3"
		},
		{
			"bufferView":52,
			"componentType":5126,
			"count":24,
			"type":"VEC3"
		},
		{
			"bufferView":53,
			"componentType":5126,
			"count":24,
			"type":"VEC2"
		},
		{
			"bufferView":54,
			"componentType":5126,
			"count":72,
			"max":[
				1.7999999523162842,
				1,
				1
			],
			"min":[
				-1,
				-1,
				-1
			],
			"type":"VEC3"
		},
		{
			"bufferView":55,
			"componentType":5126,
			"count":72,
			"type":"VEC3"
		},
		{
			"bufferView":56,
			"componentType":5126,
			"count":72,
			"type":"VEC2"
		},
		{
			"bufferView":57,
			"componentType":5123,
			"count":120,
			"type":"SCALAR"
		},
		{
			"bufferView":58,
			"componentType":5126,
			"count":96,
			"max":[
				1.600000023841858,
				-9.5367431640625e-07,
				0.800000011920929
			],
			"min":[
				-0.20000004768371582,
				-2.0000009536743164,
				-0.800000011920929
			],
			"type":"VEC3"
		},
		{
			"bufferView":59,
			"componentType":5126,
			"count":96,
			"type":"VEC3"
		},
		{
			"bufferView":60,
			"componentType":5126,
			"count":96,
			"type":"VEC2"
		},
		{
			"bufferView":61,
			"componentType":5123,
			"count":144,
			"type":"SCALAR"
		}
	],
	"bufferViews":[
		{
			"buffer":0,
			"byteLength":1848,
			"byteOffset":0,
			"target":34962
		},
		{
			"buffer":0,
			"byteLength":1848,
			"byteOffset":1848,
			"target":34962
		},
		{
			"buffer":0,
			"byteLength":1232,
			"byteOffset":3696,
			"target":34962
		},
		{
			"buffer":0,
			"byteLength":816,
			"byteOffset":4928,
			"target":34963
		},
		{
			"buffer":0,
			"byteLength":864,
			"byteOffset":5744,
			"target":34962
		},
		{
			"buffer":0,
			"byteLength":864,
			"byteOffset":6608,
			"target":34962
		},
		{
			"buffer":0,
			"byteLength":576,
			"byteOffset":7472,
			"target":34962
		},
		{
			"buffer":0,
			"byteLength":216,
			"byteOffset":8048,
			"target":34963
		},
		{
			"buffer":0,
			"byteLength":768,
			"byteOffset":8264,
			"target":34962
		},
		{
			"buffer":0,
			"byteLength":768,
			"byteOffset":9032,
			"target":34962
		},
		{
			"buffer":0,
			"byteLength":512,
			"byteOffset":9800,
			"target":34962
		},
		{
			"buffer":0,
			"byteLength":192,
			"byteOffset":10312,
			"target":34963
		},
		{
			"buffer":0,
			"byteLength":480,
			"byteOffset":10504,
			"target":34962
		},
		{
			"buffer":0,
			"byteLength":480,
			"byteOffset":10984,
			"target":34962
		},
		{
			"buffer":0,
			"byteLength":320,
			"byteOffset":11464,
			"target":34962
		},
		{
			"buffer":0,
			"byteLength":120,
			"byteOffset":11784,
			"target":34963
		},
		{
			"buffer":0,
			"byteLength":576,
			"byteOffset":11904,
			"target":34962
		},
		{
			"buffer":0,
			"byteLength":576,
			"byteOffset":12480,
			"target":34962
		},
		{
			"buffer":0,
			"byteLength":384,
			"byteOffset":13056,
			"target":34962
		},
		{
			"buffer":0,
			"byteLength":144,
			"byteOffset":13440,
			"target":34963
		},
		{
			"buffer":0,
			"byteLength":576,
			"byteOffset":13584,
			"target":34962
		},
		{
			"buffer":0,
			"byteLength":576,
			"byteOffset":14160,
			"target":34962
		},
		{
			"buffer":0,
			"byteLength":384,
			"byteOffset":14736,
			"target":34962
		},
		{
			"buffer":0,
			"byteLength":576,
			"byteOffset":15120,
			"target":34962
		},
		{
			"buffer":0,
			"byteLength":576,
			"byteOffset":15696,
			"target":34962
		},
		{
			"buffer":0,
			"byteLength":384,
			"byteOffset":16272,
			"target":34962
		},
		{
			"buffer":0,
			"byteLength":288,
			"byteOffset":16656,
			"target":34962
		},
		{
			"buffer":0,
			"byteLength":288,
			"byteOffset":16944,
			"target":34962
		},
		{
			"buffer":0,
			"byteLength":192,
			"byteOffset":17232,
			"target":34962
		},
		{
			"buffer":0,
			"byteLength":72,
			"byteOffset":17424,
			"target":34963
		},
		{
			"buffer":0,
			"byteLength":2736,
			"byteOffset":17496,
			"target":34962
		},
		{
			"buffer":0,
			"byteLength":2736,
			"byteOffset":20232,
			"target":34962
		},
		{
			"buffer":0,
			"byteLength":1824,
			"byteOffset":22968,
			"target":34962
		},
		{
			"buffer":0,
			"byteLength":780,
			"byteOffset":24792,
			"target":34963
		},
		{
			"buffer":0,
			"byteLength":576,
			"byteOffset":25572,
			"target":34962
		},
		{
			"buffer":0,
			"byteLength":576,
			"byteOffset":26148,
			"target":34962
		},
		{
			"buffer":0,
			"byteLength":384,
			"byteOffset":26724,
			"target":34962
		},
		{
			"buffer":0,
			"byteLength":192,
			"byteOffset":27108,
			"target":34962
		},
		{
			"buffer":0,
			"byteLength":192,
			"byteOffset":27300,
			"target":34962
		},
		{
			"buffer":0,
			"byteLength":128,
			"byteOffset":27492,
			"target":34962
		},
		{
			"buffer":0,
			"byteLength":72,
			"byteOffset":27620,
			"target":34963
		},
		{
			"buffer":0,
			"byteLength":288,
			"byteOffset":27692,
			"target":34962
		},
		{
			"buffer":0,
			"byteLength":288,
			"byteOffset":27980,
			"target":34962
		},
		{
			"buffer":0,
			"byteLength":192,
			"byteOffset":28268,
			"target":34962
		},
		{
			"buffer":0,
			"byteLength":288,
			"byteOffset":28460,
			"target":34962
		},
		{
			"buffer":0,
			"byteLength":288,
			"byteOffset":28748,
			"target":34962
		},
		{
			"buffer":0,
			"byteLength":192,
			"byteOffset":29036,
			"target":34962
		},
		{
			"buffer":0,
			"byteLength":576,
			"byteOffset":29228,
			"target":34962
		},
		{
			"buffer":0,
			"byteLength":576,
			"byteOffset":29804,
			"target":34962
		},
		{
			"buffer":0,
			"byteLength":384,
			"byteOffset":30380,
			"target":34962
		},
		{
			"buffer":0,
			"byteLength":168,
			"byteOffset":30764,
			"target":34963
		},
		{
			"buffer":0,
			"byteLength":288,
			"byteOffset":30932,
			"target":34962
		},
		{
			"buffer":0,
			"byteLength":288,
			"byteOffset":31220,
			"target":34962
		},
		{
			"buffer":0,
			"byteLength":192,
			"byteOffset":31508,
			"target":34962
		},
		{
			"buffer":0,
			"byteLength":864,
			"byteOffset":31700,
			"target":34962
		},
		{
			"buffer":0,
			"byteLength":864,
			"byteOffset":32564,
			"target":34962
		},
		{
			"buffer":0,
			"byteLength":576,
			"byteOffset":33428,
			"target":34962
		},
		{
			"buffer":0,
			"byteLength":240,
			"byteOffset":34004,
			"target":34963
		},
		{
			"buffer":0,
			"byteLength":1152,
			"byteOffset":34244,
			"target":34962
		},
		{
			"buffer":0,
			"byteLength":1152,
			"byteOffset":35396,
			"target":34962
		},
		{
			"buffer":0,
			"byteLength":768,
			"byteOffset":36548,
			"target":34962
		},
		{
			"buffer":0,
			"byteLength":288,
			"byteOffset":37316,
			"target":34963
		}
	],
	"buffers":[
		{
			"byteLength":37604,
			"uri":"pico_arp_chassis.bin"
		}
	]
}
